# xmcd
#
# Track frame offsets:
#	150
#	11230
#	22950
#	33720
#	46377
#	56185
#	66382
#	78287
#	92570
#	106040
#	117962
#	129097
#
# Disc length: 1856 seconds
#
# Revision: 1
# Processed by: cddbd v1.4PL0 Copyright (c) Steve Scherf et al.
# Submitted via: audiograbber 1.81.02
#
DISCID=97073e0c
DTITLE=Buck Owens - On The Bandstand
DYEAR=1900
DGENRE=
TTITLE0=Saw Mill
TTITLE1=King Of Fools
TTITLE2=Sally Was A Good Old Girl
TTITLE3=I Can't Stop (My Lovin' You) 
TTITLE4=Orange Blossom Special
TTITLE5=Cotton Fields
TTITLE6=Kickin' Our Hearts Around
TTITLE7=Touch Me
TTITLE8=Sweethearts In Heaven
TTITLE9=Release Me
TTITLE10=One Way Love
TTITLE11=Diggy Liggy Lo
EXTD=
EXTT0=
EXTT1=
EXTT2=
EXTT3=
EXTT4=
EXTT5=
EXTT6=
EXTT7=
EXTT8=
EXTT9=
EXTT10=
EXTT11=
PLAYORDER=
